# xmcd
#
# Track frame offsets: 
#        183
#        11793
#        22070
#        33603
#        44398
#        52525
#        61925
#        73760
#        84228
#        96345
#        108633
#        120585
#        131665
#        141935
#        154433
#        170370
#        180830
#        192755
#        202055
#        217718
#
# Disc length: 3054 seconds
#
# Revision: 3
# Processed by: cddbd v1.5.2PL0 Copyright (c) Steve Scherf et al.
# Submitted via: ExactAudioCopy v0.95b4
#
DISCID=170bec14
DTITLE=Various Artist - The Country Hall Of Fame - Legends In Music
DYEAR=1900
DGENRE=
TTITLE0=George Jones - Heartaches By The Number
TTITLE1=Jerry Lee Lewis - I Love You So Much It Hurts
TTITLE2=Johnny Cash - Thanks A Lot
TTITLE3=Hank Locklin - Born To Ramble
TTITLE4=Roger Miller - Dang Me
TTITLE5=Jerry Wallace - In A Cotton Candy World
TTITLE6=T.Texas Tyler - Remember Me
TTITLE7=Tillman Frank Singers - I Can't Help It (If I'm Still Falling 
TTITLE7=In Love With You)
TTITLE8=Jimmy Dean - Pickin' Sweethearts
TTITLE9=Johnny Cash - Folsom Prison Blues
TTITLE10=Wyn Stewart - Wishful Thinking
TTITLE11=The Carlisles - No Help Wanted
TTITLE12=Roy Orbison - Domino
TTITLE13=Merle Kilgore - 42 In Chicago
TTITLE14=Jeannie C.Riley - The Cotton Patch
TTITLE15=Conway Twitty - Born To Sing The Blues
TTITLE16=Jerry Wallace - Release Me
TTITLE17=Johnny Cash - Down The Street To 301
TTITLE18=Roger Miller - With Pen In Hand
TTITLE19=Jerry Lee Lewis - See See Rider
EXTD=
EXTT0=
EXTT1=
EXTT2=
EXTT3=
EXTT4=
EXTT5=
EXTT6=
EXTT7=
EXTT8=
EXTT9=
EXTT10=
EXTT11=
EXTT12=
EXTT13=
EXTT14=
EXTT15=
EXTT16=
EXTT17=
EXTT18=
EXTT19=
PLAYORDER=
